<svg width="58" height="70" viewBox="0 0 58 70" fill="none" xmlns="http://www.w3.org/2000/svg">
<mask id="path-1-inside-1_30_10" fill="white">
<path d="M44.9 19.6C43.5 19.6 42.0999 19.1 41.0999 18.1C39.8999 17 39.2 15.5 39.2 13.9V1.19995H41.2V13.9C41.2 15 41.6 15.9 42.4 16.6C43.2 17.3 44.2 17.6 45.2 17.5L56.3 16.4L56.5 18.4L45.4 19.5C45.3 19.6 45.1 19.6 44.9 19.6Z"/>
</mask>
<path d="M44.9 19.6C43.5 19.6 42.0999 19.1 41.0999 18.1C39.8999 17 39.2 15.5 39.2 13.9V1.19995H41.2V13.9C41.2 15 41.6 15.9 42.4 16.6C43.2 17.3 44.2 17.6 45.2 17.5L56.3 16.4L56.5 18.4L45.4 19.5C45.3 19.6 45.1 19.6 44.9 19.6Z" fill="black"/>
<path d="M41.0999 18.1L50.9994 8.20046L50.7843 7.98535L50.5601 7.77979L41.0999 18.1ZM39.2 1.19995V-12.8H25.2V1.19995H39.2ZM41.2 1.19995H55.2V-12.8H41.2V1.19995ZM45.2 17.5L43.8193 3.56819L43.8069 3.56943L45.2 17.5ZM56.3 16.4L70.2305 15.0069L68.8387 1.0888L54.9193 2.46819L56.3 16.4ZM56.5 18.4L57.8806 32.3317L71.8247 30.9499L70.4305 17.0069L56.5 18.4ZM45.4 19.5L44.0193 5.56819L39.0392 6.06172L35.5005 9.60046L45.4 19.5ZM44.9 5.59995C46.6814 5.59995 49.0205 6.22154 50.9994 8.20046L31.2005 27.9994C35.1794 31.9784 40.3185 33.6 44.9 33.6V5.59995ZM50.5601 7.77979C52.0465 9.14233 53.2 11.3041 53.2 13.9H25.2C25.2 19.6958 27.7534 24.8576 31.6398 28.4201L50.5601 7.77979ZM53.2 13.9V1.19995H25.2V13.9H53.2ZM39.2 15.2H41.2V-12.8H39.2V15.2ZM27.2 1.19995V13.9H55.2V1.19995H27.2ZM27.2 13.9C27.2 18.8766 29.224 23.6738 33.1809 27.136L51.619 6.06388C52.6251 6.94421 53.604 8.16303 54.2933 9.71401C54.9772 11.2527 55.2 12.7208 55.2 13.9H27.2ZM33.1809 27.136C36.9527 30.4364 41.8136 31.9084 46.593 31.4305L43.8069 3.56943C46.5863 3.29149 49.4472 4.16352 51.619 6.06388L33.1809 27.136ZM46.5806 31.4317L57.6806 30.3317L54.9193 2.46819L43.8193 3.56819L46.5806 31.4317ZM42.3694 17.793L42.5694 19.793L70.4305 17.0069L70.2305 15.0069L42.3694 17.793ZM55.1193 4.46819L44.0193 5.56819L46.7806 33.4317L57.8806 32.3317L55.1193 4.46819ZM35.5005 9.60046C38.6806 6.42031 42.2997 5.85786 43.2075 5.72817C44.2974 5.57246 45.2587 5.59995 44.9 5.59995V33.6C44.9071 33.6 45.1864 33.6012 45.4998 33.5911C45.8205 33.5808 46.4252 33.5528 47.1674 33.4467C48.2502 33.292 52.0193 32.6796 55.2994 29.3994L35.5005 9.60046Z" fill="white" mask="url(#path-1-inside-1_30_10)"/>
<mask id="path-3-inside-2_30_10" fill="white">
<path d="M52 69.8H6.00005C2.90005 69.8 0.300049 67.1999 0.300049 64.0999V5.89995C0.300049 2.79995 2.90005 0.199951 6.00005 0.199951H40.8L57.7 17V64.0999C57.7 67.2999 55.1 69.8 52 69.8ZM6.00005 2.19995C4.00005 2.19995 2.30005 3.89995 2.30005 5.89995V64.1999C2.30005 66.1999 4.00005 67.9 6.00005 67.9H52C54 67.9 55.7 66.1999 55.7 64.1999V17.9L40 2.19995H6.00005Z"/>
</mask>
<path d="M52 69.8H6.00005C2.90005 69.8 0.300049 67.1999 0.300049 64.0999V5.89995C0.300049 2.79995 2.90005 0.199951 6.00005 0.199951H40.8L57.7 17V64.0999C57.7 67.2999 55.1 69.8 52 69.8ZM6.00005 2.19995C4.00005 2.19995 2.30005 3.89995 2.30005 5.89995V64.1999C2.30005 66.1999 4.00005 67.9 6.00005 67.9H52C54 67.9 55.7 66.1999 55.7 64.1999V17.9L40 2.19995H6.00005Z" fill="black"/>
<path d="M40.8 0.199951L50.6701 -9.72887L46.5747 -13.8H40.8V0.199951ZM57.7 17H71.7V11.1766L67.5701 7.07112L57.7 17ZM55.7 17.9H69.7V12.101L65.5995 8.00046L55.7 17.9ZM40 2.19995L49.8995 -7.69954L45.799 -11.8H40V2.19995ZM52 55.8H6.00005V83.8H52V55.8ZM6.00005 55.8C10.6321 55.8 14.3 59.468 14.3 64.0999H-13.7C-13.7 74.9319 -4.83196 83.8 6.00005 83.8V55.8ZM14.3 64.0999V5.89995H-13.7V64.0999H14.3ZM14.3 5.89995C14.3 10.5319 10.632 14.2 6.00005 14.2V-13.8C-4.83193 -13.8 -13.7 -4.93204 -13.7 5.89995H14.3ZM6.00005 14.2H40.8V-13.8H6.00005V14.2ZM30.93 10.1288L47.83 26.9288L67.5701 7.07112L50.6701 -9.72887L30.93 10.1288ZM43.7 17V64.0999H71.7V17H43.7ZM43.7 64.0999C43.7 59.4085 47.5285 55.8 52 55.8V83.8C62.6716 83.8 71.7 75.1914 71.7 64.0999H43.7ZM6.00005 -11.8C-3.73193 -11.8 -11.7 -3.83204 -11.7 5.89995H16.3C16.3 11.6319 11.732 16.2 6.00005 16.2V-11.8ZM-11.7 5.89995V64.1999H16.3V5.89995H-11.7ZM-11.7 64.1999C-11.7 73.9319 -3.73197 81.9 6.00005 81.9V53.9C11.7321 53.9 16.3 58.468 16.3 64.1999H-11.7ZM6.00005 81.9H52V53.9H6.00005V81.9ZM52 81.9C61.7321 81.9 69.7 73.9319 69.7 64.1999H41.7C41.7 58.468 46.268 53.9 52 53.9V81.9ZM69.7 64.1999V17.9H41.7V64.1999H69.7ZM65.5995 8.00046L49.8995 -7.69954L30.1006 12.0994L45.8006 27.7994L65.5995 8.00046ZM40 -11.8H6.00005V16.2H40V-11.8Z" fill="white" mask="url(#path-3-inside-2_30_10)"/>
</svg>
