<svg width="58" height="70" viewBox="0 0 58 70" fill="none" xmlns="http://www.w3.org/2000/svg">
<path d="M44.9 19.6C43.5 19.6 42.0999 19.1 41.0999 18.1C39.8999 17 39.2 15.5 39.2 13.9V1.19995H41.2V13.9C41.2 15 41.6 15.9 42.4 16.6C43.2 17.3 44.2 17.6 45.2 17.5L56.3 16.4L56.5 18.4L45.4 19.5C45.3 19.6 45.1 19.6 44.9 19.6Z" fill="black"/>
<path d="M52 69.8H6.00005C2.90005 69.8 0.300049 67.1999 0.300049 64.0999V5.89995C0.300049 2.79995 2.90005 0.199951 6.00005 0.199951H40.8L57.7 17V64.0999C57.7 67.2999 55.1 69.8 52 69.8ZM6.00005 2.19995C4.00005 2.19995 2.30005 3.89995 2.30005 5.89995V64.1999C2.30005 66.1999 4.00005 67.9 6.00005 67.9H52C54 67.9 55.7 66.1999 55.7 64.1999V17.9L40 2.19995H6.00005Z" fill="black"/>
</svg>
