<svg xmlns="http://www.w3.org/2000/svg" xmlns:xlink="http://www.w3.org/1999/xlink" version="1.1" x="0px" y="0px" viewBox="0 0 90 112.5" enable-background="new 0 0 90 90" xml:space="preserve"><g><g><g><path d="M61.7,29.8c-1,0-1.9-0.4-2.6-1c-0.8-0.7-1.3-1.8-1.3-2.9V11.2h2v14.7c0,0.5,0.2,1.1,0.6,1.4c0.4,0.4,0.9,0.5,1.5,0.5     l13-1.3l0.2,2l-13,1.3C61.9,29.8,61.8,29.8,61.7,29.8z"/></g><g><path d="M72.3,79.8H22.8c-2.2,0-3.9-1.8-3.9-3.9V63h20.4c1.1,0,1.9-0.9,1.9-1.9V50.6c0-1.1-0.9-1.9-1.9-1.9H18.9V14.1     c0-2.2,1.8-3.9,3.9-3.9h36.5L76.3,27v48.9C76.3,78.1,74.5,79.8,72.3,79.8z M20.9,65v10.9c0,1.1,0.9,1.9,1.9,1.9h49.5     c1.1,0,1.9-0.9,1.9-1.9v-48L58.5,12.2H22.8c-1.1,0-1.9,0.9-1.9,1.9v32.6h18.4c2.2,0,3.9,1.8,3.9,3.9v10.5c0,2.2-1.8,3.9-3.9,3.9     H20.9z"/></g></g><g><g><path d="M39.5,65H17.7c-2.2,0-3.9-1.8-3.9-3.9V50.6c0-2.2,1.8-3.9,3.9-3.9h21.8c2.2,0,3.9,1.8,3.9,3.9v10.5     C43.4,63.2,41.7,65,39.5,65z M17.7,48.7c-1.1,0-1.9,0.9-1.9,1.9v10.5c0,1.1,0.9,1.9,1.9,1.9h21.8c1.1,0,1.9-0.9,1.9-1.9V50.6     c0-1.1-0.9-1.9-1.9-1.9H17.7z"/></g><g><path d="M20.4,51.2h2.5c0.7,0,1.2,0.1,1.5,0.2s0.6,0.3,0.8,0.5s0.3,0.4,0.4,0.7s0.1,0.7,0.1,1.3v0.8c0,0.6-0.1,1-0.2,1.3     s-0.4,0.5-0.7,0.6s-0.8,0.2-1.3,0.2h-0.7v3.8h-2.5V51.2z M22.8,52.8v2.4c0.1,0,0.1,0,0.2,0c0.2,0,0.4-0.1,0.5-0.2     s0.1-0.3,0.1-0.7v-0.8c0-0.3-0.1-0.5-0.2-0.6S23.1,52.8,22.8,52.8z"/><path d="M26.4,51.2h1.8c1.2,0,2,0.1,2.4,0.2s0.7,0.3,1,0.5s0.4,0.5,0.4,0.8s0.1,0.9,0.1,1.8v3.3c0,0.9,0,1.4-0.1,1.7     s-0.2,0.5-0.4,0.7s-0.4,0.3-0.7,0.3s-0.7,0.1-1.3,0.1h-3.1V51.2z M28.8,52.8V59c0.4,0,0.6-0.1,0.7-0.2s0.1-0.5,0.1-1.2V54     c0-0.4,0-0.7,0-0.8s-0.1-0.2-0.2-0.3S29.1,52.8,28.8,52.8z"/><path d="M33,51.2h4.2v1.9h-1.7v1.8H37v1.8h-1.5v4H33V51.2z"/></g></g></g><text x="0" y="105" fill="#000000" font-size="5px" font-weight="bold" font-family="'Helvetica Neue', Helvetica, Arial-Unicode, Arial, Sans-serif">Created by Yoteyo</text><text x="0" y="110" fill="#000000" font-size="5px" font-weight="bold" font-family="'Helvetica Neue', Helvetica, Arial-Unicode, Arial, Sans-serif">from the Noun Project</text></svg>