<svg xmlns="http://www.w3.org/2000/svg" xmlns:xlink="http://www.w3.org/1999/xlink" version="1.1" x="0px" y="0px" viewBox="0 0 90 112.5" enable-background="new 0 0 90 90" xml:space="preserve"><g><g><path d="M60.9,29.6c-1.4,0-2.8-0.5-3.8-1.5c-1.2-1.1-1.9-2.6-1.9-4.2V11.2h2v12.7c0,1.1,0.4,2,1.2,2.7c0.8,0.7,1.8,1,2.8,0.9    l11.1-1.1l0.2,2l-11.1,1.1C61.3,29.6,61.1,29.6,60.9,29.6z"/></g><g><path d="M68,79.8H22c-3.1,0-5.7-2.6-5.7-5.7V15.9c0-3.1,2.6-5.7,5.7-5.7h34.8L73.7,27v47.1C73.7,77.3,71.1,79.8,68,79.8z M22,12.2    c-2,0-3.7,1.7-3.7,3.7v58.3c0,2,1.7,3.7,3.7,3.7h46c2,0,3.7-1.7,3.7-3.7V27.9L56,12.2H22z"/></g></g><text x="0" y="105" fill="#000000" font-size="5px" font-weight="bold" font-family="'Helvetica Neue', Helvetica, Arial-Unicode, Arial, Sans-serif">Created by Yoteyo</text><text x="0" y="110" fill="#000000" font-size="5px" font-weight="bold" font-family="'Helvetica Neue', Helvetica, Arial-Unicode, Arial, Sans-serif">from the Noun Project</text></svg>