<svg width="63" height="70" viewBox="0 0 63 70" fill="none" xmlns="http://www.w3.org/2000/svg">
<path d="M47.9 19.6C46.9 19.6 46 19.2 45.3 18.6C44.5 17.9 44 16.8 44 15.7V1H46V15.7C46 16.2 46.2 16.8 46.6 17.1C47 17.5 47.5 17.6 48.1 17.6L61.1 16.3L61.3 18.3L48.3 19.6C48.1 19.6 48 19.6 47.9 19.6Z" fill="white"/>
<path d="M58.5 69.6H8.99998C6.79998 69.6 5.09998 67.8 5.09998 65.7V52.8H25.5C26.6 52.8 27.4 51.9 27.4 50.9V40.4C27.4 39.3 26.5 38.5 25.5 38.5H5.09998V3.9C5.09998 1.7 6.89998 0 8.99998 0H45.5L62.5 16.8V65.7C62.5 67.9 60.7 69.6 58.5 69.6ZM7.09998 54.8V65.7C7.09998 66.8 7.99998 67.6 8.99998 67.6H58.5C59.6 67.6 60.4 66.7 60.4 65.7V17.7L44.7 2H8.99998C7.89998 2 7.09998 2.9 7.09998 3.9V36.5H25.5C27.7 36.5 29.4 38.3 29.4 40.4V50.9C29.4 53.1 27.6 54.8 25.5 54.8H7.09998Z" fill="white"/>
<path d="M25.7 54.8H3.9C1.7 54.8 0 53 0 50.9V40.4C0 38.2 1.8 36.5 3.9 36.5H25.7C27.9 36.5 29.6 38.3 29.6 40.4V50.9C29.6 53 27.9 54.8 25.7 54.8ZM3.9 38.5C2.8 38.5 2 39.4 2 40.4V50.9C2 52 2.9 52.8 3.9 52.8H25.7C26.8 52.8 27.6 51.9 27.6 50.9V40.4C27.6 39.3 26.7 38.5 25.7 38.5H3.9Z" fill="white"/>
<path d="M6.6 41H9.1C9.8 41 10.3 41.1 10.6 41.2C10.9 41.3 11.2 41.5 11.4 41.7C11.6 41.9 11.7 42.1 11.8 42.4C11.9 42.7 11.9 43.1 11.9 43.7V44.5C11.9 45.1 11.8 45.5 11.7 45.8C11.6 46.1 11.3 46.3 11 46.4C10.7 46.5 10.2 46.6 9.7 46.6H9V50.4H6.5V41H6.6ZM9 42.6V45C9.1 45 9.1 45 9.2 45C9.4 45 9.6 44.9 9.7 44.8C9.8 44.7 9.8 44.5 9.8 44.1V43.3C9.8 43 9.7 42.8 9.6 42.7C9.5 42.6 9.3 42.6 9 42.6Z" fill="white"/>
<path d="M12.6 41H14.4C15.6 41 16.4 41.1 16.8 41.2C17.2 41.3 17.5 41.5 17.8 41.7C18.1 41.9 18.2 42.2 18.2 42.5C18.2 42.8 18.3 43.4 18.3 44.3V47.6C18.3 48.5 18.3 49 18.2 49.3C18.1 49.6 18 49.8 17.8 50C17.6 50.2 17.4 50.3 17.1 50.3C16.8 50.3 16.4 50.4 15.8 50.4H12.7V41H12.6ZM15 42.6V48.8C15.4 48.8 15.6 48.7 15.7 48.6C15.8 48.5 15.8 48.1 15.8 47.4V43.8C15.8 43.4 15.8 43.1 15.8 43C15.8 42.9 15.7 42.8 15.6 42.7C15.5 42.6 15.3 42.6 15 42.6Z" fill="white"/>
<path d="M19.2 41H23.4V42.9H21.7V44.7H23.2V46.5H21.7V50.5H19.2V41Z" fill="white"/>
</svg>
